<svg width="2201" height="512" viewBox="0 0 2201 512" fill="none" xmlns="http://www.w3.org/2000/svg">
<path d="M1235.86 241.935C1269.57 216.812 1286.8 183.079 1286.8 139.294C1286.8 99.8052 1272.42 66.7602 1243.7 40.1936C1215.67 13.6442 1180.46 0 1139.51 0H939.787V502.652H1306.19V241.935H1235.86ZM1223.58 425.1H1022.41V77.5518H1139.51C1176.15 77.5518 1204.17 106.284 1204.17 143.607C1204.17 180.931 1176.15 209.663 1139.51 209.663H1105.02V284.345H1223.56V425.1H1223.58Z" fill="black"/>
<path d="M298.15 0H380.777V502.652H298.15V285.084H82.6266V502.669H0V0H82.6266V206.089H298.15V0Z" fill="black"/>
<path d="M471.002 0H553.629V331.034C553.629 392.072 589.544 431.561 661.391 431.561C733.238 431.561 769.152 392.072 769.152 331.034V0H851.779V336.069C851.779 389.924 833.813 432.3 798.62 464.606C763.41 496.208 717.438 512 661.391 512C605.361 512 559.371 496.208 524.178 464.606C488.968 432.3 471.019 389.924 471.019 336.069V0H471.002Z" fill="black"/>
<path d="M1476.84 423.674H1681.6V502.669H1394.22V0H1476.84V423.674Z" fill="black"/>
<path d="M2111.53 502.652L2076.32 401.403H1862.23L1827.02 502.652H1737.22L1919.72 0H2018.87L2200.62 502.652H2111.53ZM1889.55 323.851H2049.04L1969.3 96.9354L1889.55 323.851Z" fill="black"/>
</svg>
